<?xml version="1.0" encoding="utf-8"?>
<!-- Generator: Adobe Illustrator 28.0.0, SVG Export Plug-In . SVG Version: 6.00 Build 0)  -->
<svg version="1.1" id="图层_1" xmlns="http://www.w3.org/2000/svg" xmlns:xlink="http://www.w3.org/1999/xlink" x="0px" y="0px"
	 viewBox="0 0 224.3 224.3" style="enable-background:new 0 0 224.3 224.3;" xml:space="preserve">
<style type="text/css">
	.st0{fill:#534D41;}
	.st1{fill:#ECEBD5;}
	.st2{fill:#EDEBD4;}
</style>
<g id="Layer_2_00000144314470300559992910000013532022802630194365_">
	<g id="Layer_1-2_00000059998904164007919750000001582767958614402187_">
		<circle class="st0" cx="112.1" cy="112.1" r="112.1"/>
	</g>
</g>
<g>
	<g>
		<rect x="33.4" y="153" class="st2" width="157.5" height="9.6"/>
		<path class="st2" d="M190.8,145.6c0-0.2,0-0.4,0-0.5c0-56-35.2-101.5-78.7-101.5S33.4,89.1,33.4,145.1c0,0.2,0,0.4,0,0.5H190.8z"
			/>
		<rect x="86" y="89.1" class="st0" width="52.2" height="56.5"/>
	</g>
	<g>
		<rect x="33.4" y="154" class="st2" width="157.5" height="9.6"/>
		<path class="st2" d="M190.8,145.6c0-0.2,0-0.4,0-0.5c0-56-35.2-101.5-78.7-101.5S33.4,89.1,33.4,145.1c0,0.2,0,0.4,0,0.5H190.8z"
			/>
		<rect x="86" y="90.1" class="st0" width="52.2" height="56.5"/>
	</g>
</g>
</svg>
