<?xml version="1.0" encoding="utf-8"?>
<!-- Generator: Adobe Illustrator 28.0.0, SVG Export Plug-In . SVG Version: 6.00 Build 0)  -->
<svg version="1.1" id="图层_1" xmlns="http://www.w3.org/2000/svg" xmlns:xlink="http://www.w3.org/1999/xlink" x="0px" y="0px"
	 viewBox="0 0 224.3 224.3" style="enable-background:new 0 0 224.3 224.3;" xml:space="preserve">
<style type="text/css">
	.st0{fill:#534D41;}
	.st1{fill:#ECEBD5;}
	.st2{fill:#EDEBD4;}
</style>
<g id="Layer_2_00000052816975758189263730000015014736953297919117_">
	<g id="Layer_1-2_00000116942025871724409770000017485279642288716206_">
		<circle class="st0" cx="112.1" cy="112.1" r="112.1"/>
	</g>
</g>
<g>
	<g>
		<path class="st2" d="M61.4,62.9c0.5-6.2-1.8-31.7-1.8-31.7s13.9,5.4,18.7,6.2c14.2,2.4,43.5,3.4,57.7,1c6-1,27.8-7.2,27.8-7.2
			s-1.5,23.1-1,29.3c0.8,10,5.2,28.3,7.7,38c2.9,11.5,6.5,16.7,7.2,37c0.5,13.9-8.2,33.7-36.9,45.2c-10,4-30.4,8.6-49.6,3.4
			c-5.4-1.5,3.7,0.9,0,0c-15.5-3.8-43.3-13.5-44.7-53.9c-0.3-9,3.6-26.4,7.2-34.6C56.9,88.3,60.3,76.8,61.4,62.9z"/>
		<g>
			<g>
				<rect x="94.6" y="184.1" class="st2" width="4.8" height="23.1"/>
				
					<rect x="102.7" y="184.1" transform="matrix(-0.6319 0.775 -0.775 -0.6319 323.0914 237.772)" class="st2" width="4.8" height="23.1"/>
				
					<rect x="86.6" y="183.2" transform="matrix(0.6319 0.775 -0.775 0.6319 183.6912 2.7284)" class="st2" width="4.8" height="23.1"/>
			</g>
			<g>
				<rect x="124.8" y="184.1" class="st2" width="4.8" height="23.1"/>
				
					<rect x="132.9" y="184.1" transform="matrix(-0.6319 0.775 -0.775 -0.6319 372.4093 214.3509)" class="st2" width="4.8" height="23.1"/>
				
					<rect x="116.8" y="183.2" transform="matrix(0.6319 0.775 -0.775 0.6319 194.8139 -20.6927)" class="st2" width="4.8" height="23.1"/>
			</g>
		</g>
		<g>
			<circle class="st0" cx="81.1" cy="76.2" r="9.9"/>
			<circle class="st0" cx="143.2" cy="76.2" r="9.9"/>
		</g>
	</g>
	<g>
		<polygon class="st0" points="80.1,142.4 92.1,125 68.2,125 		"/>
		<polygon class="st0" points="112.1,142.4 124.1,125 100.2,125 		"/>
		<polygon class="st0" points="96.1,163.4 108.1,146 84.2,146 		"/>
		<polygon class="st0" points="128.1,163.4 140.1,146 116.2,146 		"/>
		<polygon class="st0" points="144.2,142.4 156.1,125 132.2,125 		"/>
	</g>
	<polygon class="st0" points="112,66.2 98.2,82.6 112,92.7 126,82.6 	"/>
</g>
</svg>
