<?xml version="1.0" encoding="utf-8"?>
<!-- Generator: Adobe Illustrator 28.0.0, SVG Export Plug-In . SVG Version: 6.00 Build 0)  -->
<svg version="1.1" id="图层_1" xmlns="http://www.w3.org/2000/svg" xmlns:xlink="http://www.w3.org/1999/xlink" x="0px" y="0px"
	 viewBox="0 0 224.3 224.3" style="enable-background:new 0 0 224.3 224.3;" xml:space="preserve">
<style type="text/css">
	.st0{fill:#534D41;}
	.st1{fill:#ECEBD5;}
	.st2{fill:#EDEBD4;}
</style>
<g id="Layer_2_00000179624778135689918480000003489703389919036857_">
	<g id="Layer_1-2_00000123410460347317440230000017152480622168039300_">
		<circle class="st0" cx="112.1" cy="112.1" r="112.1"/>
	</g>
</g>
<path class="st2" d="M166.6,164.9c0-0.1,0-0.1,0-0.2c1.9-3.6,2.9-7.7,2.9-12.1c0-14.7-12-26.7-26.7-26.7s-26.7,12-26.7,26.7
	c0,13.9,10.7,25.4,24.4,26.6c-29.1,10.3-80.6,4.3-108.2-11.3c4.2-7.9,10.2-23.2,12.6-32.1c3-19.9,8.5-58,19.8-67.6
	c19.1-25,66.5-27.6,84.8-0.4c1.1-0.1,6.3-16.9,8.3-26.3c2.5-12.1,3-14.3,3.9-14.4c0.3,0,3.7,1.8,7.5,4c5.9,3.5,9.6,6.1,13.9,9.2
	c-6.7,7.1-23.8,29.3-24.8,33.1c0,0.3,1.6,0.8,3.6,1.2c19.4,3.3,30.7,25,30,44.5C192.9,135.1,178.3,158.6,166.6,164.9z"/>
</svg>
