<?xml version="1.0" encoding="utf-8"?>
<!-- Generator: Adobe Illustrator 28.0.0, SVG Export Plug-In . SVG Version: 6.00 Build 0)  -->
<svg version="1.1" id="图层_1" xmlns="http://www.w3.org/2000/svg" xmlns:xlink="http://www.w3.org/1999/xlink" x="0px" y="0px"
	 viewBox="0 0 224.3 224.3" style="enable-background:new 0 0 224.3 224.3;" xml:space="preserve">
<style type="text/css">
	.st0{fill:#534D41;}
	.st1{fill:#ECEBD5;}
	.st2{fill:#EDEBD4;}
</style>
<g id="Layer_2_00000031171957630738854330000004269528972387893690_">
	<g id="Layer_1-2_00000035517463048352388900000007875938949513025934_">
		<circle class="st0" cx="112.1" cy="112.1" r="112.1"/>
	</g>
</g>
<g>
	<path class="st2" d="M197.5,68.4c-12.2-8.2-24.9-15.8-38.1-22.1c-7.9-3.8-16.3-5.1-20.9,6.9c-4.2,11-15,14.1-25.8,14.1
		c-11.2,0-22.8-2.4-27.4-13.8C80.3,41.3,72,42,63.5,46.2C50.7,52.5,38.3,59.8,26.6,68c-3.3,2.3-5.9,10.7-4.3,13.8
		c7.1,13.1,15.9,25.3,24.2,38.1c5.9-3.4,9.5-5.5,15.6-9c-4.4,13.4-8.2,24.2-11.4,35.2c-4.1,14.4-1.1,21.4,13.1,26.3
		c31.7,11.1,63.9,11,95.7,0c14.3-4.9,17.3-11.8,13.1-26.2c-3.2-11-7.1-21.8-11.5-35.2c6.3,3.6,9.9,5.7,15.9,9.1
		c8.5-13.1,17.5-25.8,24.9-39.2C203.5,78.3,200.6,70.5,197.5,68.4z M113.1,82c-0.4,0-0.9,0-1.3,0.1c0.3-0.1,0.5-0.1,0.8-0.2
		C112.8,81.9,113,81.9,113.1,82z"/>
	<circle class="st0" cx="112.1" cy="116.1" r="9.1"/>
	<circle class="st0" cx="112.1" cy="88.9" r="9.1"/>
</g>
</svg>
